<?xml version="1.0" standalone="no"?>
<!DOCTYPE svg PUBLIC "-//W3C//DTD SVG 20010904//EN"
 "http://www.w3.org/TR/2001/REC-SVG-20010904/DTD/svg10.dtd">
<svg version="1.0" xmlns="http://www.w3.org/2000/svg"
 width="1080.000000pt" height="1080.000000pt"  viewBox="0 0 1080.000000 1080.000000"
 preserveAspectRatio="xMidYMid meet">
<metadata>
Created by potrace 1.16, written by Peter Selinger 2001-2019
</metadata>
<g transform="translate(0.000000,1080.000000) scale(0.100000,-0.100000)"
fill="#000000" stroke="none">
<path d="M8476 7849 c-203 -23 -382 -100 -589 -252 -37 -27 -66 -51 -63 -54 2
-2 27 7 56 22 197 100 416 129 529 71 117 -61 157 -197 111 -381 -24 -94 -92
-270 -132 -338 -15 -26 -28 -50 -28 -53 0 -8 -97 -165 -120 -194 l-20 -25 0
30 c0 17 5 48 11 70 6 22 12 130 14 240 1 110 7 215 14 234 6 19 9 37 6 39 -2
2 -68 11 -147 19 -112 12 -168 24 -258 53 -183 61 -566 170 -685 195 -33 7
-123 27 -199 44 -599 133 -999 148 -1456 55 -124 -25 -153 -32 -325 -81 -191
-53 -478 -162 -695 -263 -113 -53 -136 -60 -245 -75 -293 -39 -1002 -159
-1015 -171 -3 -3 15 -3 40 0 166 21 232 28 365 40 83 8 263 22 400 31 376 23
384 25 560 105 56 26 312 118 465 168 370 120 684 182 930 182 456 0 1102
-115 1510 -269 47 -18 100 -38 118 -43 17 -6 32 -15 32 -19 0 -12 -24 -17
-190 -38 l-145 -19 235 6 c129 4 300 7 380 7 l145 0 1 -25 c2 -51 17 -137 40
-219 19 -70 24 -110 24 -216 0 -175 -10 -196 -162 -360 -25 -27 -49 -47 -53
-43 -4 3 0 26 8 50 8 23 18 58 22 76 l7 32 -200 0 -200 0 -15 -42 -15 -43 -1
36 c-1 47 -28 136 -54 179 -41 67 -117 138 -185 172 -64 31 -72 33 -182 33
-109 0 -118 -2 -180 -32 -84 -41 -163 -120 -203 -203 -30 -61 -32 -71 -32
-180 0 -110 1 -118 34 -185 104 -213 349 -299 565 -197 60 29 133 89 154 127
6 11 14 17 18 13 6 -7 -4 -47 -91 -363 -31 -115 -64 -234 -175 -645 -81 -299
-84 -310 -92 -310 -4 0 -18 39 -32 88 -15 48 -35 114 -45 147 -11 33 -34 107
-51 165 -18 58 -50 164 -72 235 -22 72 -55 182 -74 245 -48 155 -92 300 -158
514 -31 98 -58 193 -62 212 l-6 34 -199 0 c-151 0 -201 -3 -204 -12 -2 -7 -20
-67 -40 -133 -20 -66 -49 -160 -65 -210 -16 -49 -49 -155 -74 -235 -24 -80
-67 -217 -95 -305 -27 -88 -84 -270 -126 -405 -108 -346 -106 -343 -115 -333
-5 4 -15 35 -23 68 -16 67 -57 224 -177 680 -45 171 -101 387 -125 480 -24 94
-53 203 -65 244 -11 41 -19 80 -16 88 3 7 1 13 -4 13 -5 0 -10 12 -12 28 l-3
27 -218 3 -218 2 7 -35 6 -36 -113 3 -114 3 3 33 4 32 -181 0 -181 0 -30 42
c-16 22 -30 45 -30 50 0 4 35 8 78 9 121 1 850 66 757 68 -79 1 -594 -22 -771
-35 l-91 -6 -20 34 c-11 19 -26 52 -33 72 -24 73 15 85 350 106 263 16 268 18
40 14 -252 -6 -438 -20 -457 -35 -20 -17 -16 -38 22 -118 19 -40 35 -74 35
-76 0 -2 -27 -7 -60 -11 -90 -10 -87 -26 4 -23 l77 4 30 -48 29 -47 -214 0
-214 0 -6 28 c-24 105 -120 220 -232 277 -55 28 -66 30 -174 30 -109 0 -118
-2 -181 -32 -126 -61 -217 -183 -239 -319 -23 -139 34 -296 140 -387 l40 -34
0 -916 0 -917 780 0 780 0 0 180 0 180 -580 0 -580 0 2 310 3 311 520 2 520 2
3 177 2 178 -522 2 -523 3 -3 226 -2 226 39 18 c22 10 57 35 78 56 l38 39 471
0 472 0 6 36 c4 19 6 78 5 130 -1 52 0 96 2 98 2 2 53 6 113 8 89 2 110 0 117
-12 4 -8 27 -80 50 -160 23 -80 52 -179 65 -220 12 -41 50 -167 83 -280 33
-113 131 -443 217 -735 86 -291 160 -543 164 -560 5 -16 21 -72 36 -122 l28
-93 182 0 183 0 31 102 c18 57 43 137 55 178 13 41 53 174 90 295 36 121 79
263 95 315 38 122 137 447 203 668 28 94 55 172 59 172 4 0 21 -46 38 -102 17
-57 40 -130 50 -163 11 -33 42 -134 69 -225 27 -91 69 -226 92 -300 22 -74 46
-151 51 -170 9 -31 63 -210 133 -440 13 -41 38 -122 55 -180 51 -170 20 -151
237 -148 l187 3 34 110 c18 61 39 133 47 160 7 28 36 129 65 225 28 96 59 204
69 240 10 36 46 160 80 275 79 265 125 426 157 540 14 50 34 117 44 150 l20
60 407 -2 c280 -1 400 1 383 8 -74 30 -139 122 -142 203 -1 20 -4 36 -8 36 -4
0 -35 -31 -69 -70 -35 -38 -67 -70 -72 -70 -14 0 -11 56 5 93 20 48 96 153
183 252 42 49 71 85 64 80 -12 -7 -131 -94 -156 -113 -86 -68 -413 -267 -423
-257 -4 3 1 11 11 16 73 41 323 286 458 449 220 265 372 516 446 739 31 92 36
120 37 206 1 93 -1 104 -29 154 -41 74 -99 113 -201 134 -109 22 -167 26 -248
16z m-4989 -1131 c90 -33 170 -120 198 -215 5 -18 2 -23 -12 -23 -12 0 -32 20
-53 52 -108 164 -311 194 -468 69 -89 -70 -134 -221 -98 -327 17 -49 16 -64
-1 -42 -26 33 -45 122 -41 189 17 239 246 382 475 297z m3695 21 c104 -22 197
-88 238 -168 39 -77 53 -150 42 -215 -10 -64 -38 -143 -48 -134 -2 3 3 33 12
67 15 54 16 71 5 124 -32 158 -154 260 -311 261 -62 1 -84 -4 -130 -26 -143
-70 -221 -232 -176 -364 19 -56 19 -57 6 -49 -19 11 -41 79 -47 140 -6 66 20
162 60 220 48 70 136 128 221 145 59 11 69 11 128 -1z"/>
<path d="M5640 7445 c-154 -27 -434 -115 -588 -186 -35 -16 -66 -29 -69 -29
-3 0 -40 -16 -82 -36 -42 -19 -98 -45 -126 -56 -27 -12 -54 -25 -60 -30 -5 -4
324 -8 731 -8 l740 0 82 24 c104 32 235 60 447 97 165 28 171 30 203 64 17 19
32 39 32 43 0 22 -423 95 -670 117 -201 18 -537 18 -640 0z"/>
<path d="M7965 7046 c-33 -13 -94 -36 -135 -52 -41 -15 -79 -31 -83 -34 -11
-9 29 -57 76 -91 34 -25 49 -29 102 -29 96 0 185 12 185 24 -1 27 -20 36 -93
42 -62 6 -80 11 -98 30 l-22 23 59 26 c59 26 84 47 84 72 0 17 -5 17 -75 -11z"/>
<path d="M2997 6965 c-83 -23 -209 -77 -284 -123 -40 -24 -73 -46 -73 -49 0
-19 227 31 303 67 79 37 163 121 120 119 -10 0 -40 -7 -66 -14z"/>
<path d="M4370 3628 c-58 -40 -75 -72 -75 -143 0 -48 5 -70 21 -92 23 -33 97
-73 133 -73 34 0 111 39 111 56 0 20 -17 17 -47 -6 -59 -46 -157 -10 -182 68
-18 58 -7 108 34 149 27 27 41 33 75 33 23 0 55 -8 71 -17 31 -18 43 -15 33
10 -15 40 -124 49 -174 15z"/>
<path d="M4936 3643 c-11 -11 -7 -313 4 -313 6 0 10 30 10 70 l0 70 30 0 c26
0 34 -9 71 -70 23 -38 48 -70 55 -70 20 0 19 3 -27 77 -22 37 -37 69 -32 70
56 20 81 58 69 106 -9 39 -51 62 -117 64 -31 1 -60 -1 -63 -4z"/>
<path d="M5310 3491 c0 -101 4 -161 10 -161 6 0 10 30 10 70 l0 70 30 0 c26 0
34 -9 71 -70 23 -38 48 -70 56 -70 19 0 14 14 -32 86 -20 31 -35 57 -33 58 65
30 87 61 74 109 -9 38 -44 57 -120 64 l-66 6 0 -162z"/>
<path d="M5575 3642 c-3 -3 -5 -74 -5 -159 l0 -153 95 0 c78 0 95 3 95 15 0
12 -16 15 -85 15 l-85 0 0 55 0 55 75 0 c68 0 75 2 75 20 0 18 -7 20 -75 20
l-75 0 0 50 0 50 85 0 c83 0 85 1 75 21 -10 18 -20 20 -90 18 -44 -1 -82 -4
-85 -7z"/>
<path d="M6130 3630 c0 -17 6 -20 50 -20 l50 0 0 -140 c0 -118 2 -140 15 -140
13 0 15 22 15 140 l0 140 56 0 c47 0 55 3 52 18 -3 15 -18 17 -121 20 -112 3
-117 2 -117 -18z"/>
<path d="M6480 3631 c-12 -23 -130 -292 -130 -297 0 -2 6 -4 13 -4 8 0 22 18
32 40 l18 40 83 0 84 0 20 -40 c11 -22 27 -40 34 -40 17 0 -112 306 -131 314
-7 3 -17 -3 -23 -13z"/>
<path d="M4682 3568 c-17 -40 -46 -110 -66 -155 -28 -66 -32 -83 -20 -83 9 0
22 17 31 40 l16 40 87 0 87 0 16 -40 c9 -23 22 -40 31 -40 17 0 21 11 8 25 -5
6 -35 72 -67 148 -70 165 -79 169 -123 65z"/>
<path d="M5822 3488 c2 -110 6 -152 16 -156 9 -3 12 28 12 134 l0 139 33 -47
c17 -25 61 -87 96 -137 42 -60 70 -91 82 -91 18 0 19 10 19 155 0 131 -2 155
-15 155 -13 0 -15 -21 -15 -125 0 -69 -3 -125 -7 -125 -8 1 -165 221 -171 240
-2 5 -15 10 -28 10 l-25 0 3 -152z"/>
<path d="M10120 893 c32 -55 258 -357 269 -361 8 -3 -5 20 -28 50 -22 30 -41
59 -41 65 0 5 17 32 38 61 20 28 57 79 82 113 l45 63 5 -180 6 -179 2 193 c1
105 -2 192 -6 192 -4 0 -46 -54 -92 -120 -73 -103 -110 -141 -110 -112 0 4
-10 19 -23 34 -12 15 -49 65 -81 112 -33 47 -64 86 -68 86 -5 0 -4 -8 2 -17z"/>
</g>
</svg>
